<?xml version="1.0" encoding="UTF-8"?>
<svg version="1.1" xmlns="http://www.w3.org/2000/svg" width="48" height="48">
<path d="M0 0 C0.66 0 1.32 0 2 0 C2.99 2.97 3.98 5.94 5 9 C5.61488281 8.71125 6.22976562 8.4225 6.86328125 8.125 C7.67152344 7.75375 8.47976562 7.3825 9.3125 7 C10.11300781 6.62875 10.91351563 6.2575 11.73828125 5.875 C14 5 14 5 17 5 C15.66511872 8.59391114 14.03977277 11.75490696 12 15 C16.95 15.99 16.95 15.99 22 17 C22 17.66 22 18.32 22 19 C17.545 21.475 17.545 21.475 13 24 C13.66 25.27875 14.32 26.5575 15 27.875 C17 31.75 17 31.75 17 34 C12.91621717 33.25749403 8.98060777 32.17076699 5 31 C3.35 33.97 1.7 36.94 0 40 C-0.66 40 -1.32 40 -2 40 C-2.33 36.37 -2.66 32.74 -3 29 C-4.0725 29.33 -5.145 29.66 -6.25 30 C-10 31 -10 31 -14 31 C-12.87548273 28.0280615 -11.77706209 25.66559313 -10 23 C-12.64 21.68 -15.28 20.36 -18 19 C-18 18.34 -18 17.68 -18 17 C-15.03 16.34 -12.06 15.68 -9 15 C-9.28875 14.38511719 -9.5775 13.77023438 -9.875 13.13671875 C-10.24625 12.32847656 -10.6175 11.52023437 -11 10.6875 C-11.37125 9.88699219 -11.7425 9.08648437 -12.125 8.26171875 C-13 6 -13 6 -13 3 C-9.40608886 4.33488128 -6.24509304 5.96022723 -3 8 C-2.01 5.36 -1.02 2.72 0 0 Z " fill="#FF3E03" transform="translate(22,4)"/>
<path d="M0 0 C0.66 1.32 1.32 2.64 2 4 C3.98 3.34 5.96 2.68 8 2 C7.34 3.98 6.68 5.96 6 8 C7.32 8.66 8.64 9.32 10 10 C8.68 10.33 7.36 10.66 6 11 C6.515625 11.78375 7.03125 12.5675 7.5625 13.375 C8.036875 14.24125 8.51125 15.1075 9 16 C8.67 16.66 8.34 17.32 8 18 C7.071875 17.773125 6.14375 17.54625 5.1875 17.3125 C2.03173152 16.63680017 2.03173152 16.63680017 0.125 18.4375 C-0.24625 18.953125 -0.6175 19.46875 -1 20 C-1 18.02 -1 16.04 -1 14 C-2.98 14.33 -4.96 14.66 -7 15 C-6.34 13.35 -5.68 11.7 -5 10 C-6.32 9.34 -7.64 8.68 -9 8 C-8.01 7.34 -7.02 6.68 -6 6 C-6.33 4.35 -6.66 2.7 -7 1 C-5.02 1.66 -3.04 2.32 -1 3 C-0.67 2.01 -0.34 1.02 0 0 Z " fill="#FF9876" transform="translate(23,14)"/>
<path d="M0 0 C0.8971875 0.495 0.8971875 0.495 1.8125 1 C4.05386471 2.20787988 4.05386471 2.20787988 7 2 C7 2.66 7 3.32 7 4 C7.66 4 8.32 4 9 4 C9 4.66 9 5.32 9 6 C8.34 6 7.68 6 7 6 C7.061875 6.928125 7.12375 7.85625 7.1875 8.8125 C7 12 7 12 5.5 13.875 C5.005 14.24625 4.51 14.6175 4 15 C4 13.02 4 11.04 4 9 C2.02 9.33 0.04 9.66 -2 10 C-1.34 8.35 -0.68 6.7 0 5 C-1.32 4.34 -2.64 3.68 -4 3 C-3.01 2.67 -2.02 2.34 -1 2 C-0.67 1.34 -0.34 0.68 0 0 Z " fill="#FF9E7C" transform="translate(18,19)"/>
<path d="M0 0 C1.485 0.99 1.485 0.99 3 2 C3.99 2 4.98 2 6 2 C6 2.66 6 3.32 6 4 C6.66 4 7.32 4 8 4 C8 4.66 8 5.32 8 6 C7.34 6 6.68 6 6 6 C5.67 7.32 5.34 8.64 5 10 C1.32769295 6.92000054 0.43197635 4.7517398 0 0 Z " fill="#FFE999" transform="translate(19,19)"/>
</svg>
